<?xml version="1.0" encoding="iso-8859-1"?>
<!-- Generator: Adobe Illustrator 19.0.0, SVG Export Plug-In . SVG Version: 6.00 Build 0)  -->
<svg version="1.1" id="Layer_1" xmlns="http://www.w3.org/2000/svg" xmlns:xlink="http://www.w3.org/1999/xlink" x="0px" y="0px"
	 viewBox="0 0 418.684 418.684" style="enable-background:new 0 0 418.684 418.684;" xml:space="preserve">
<g>
	<g>
		<g>
			<path d="M387.5,79.342H31.184C13.989,79.342,0,93.331,0,110.525v54.633c0,17.195,13.989,31.184,31.184,31.184H387.5
				c17.195,0,31.184-13.989,31.184-31.184v-54.633C418.684,93.331,404.695,79.342,387.5,79.342z M101.684,181.341h-70.5
				C22.26,181.342,15,174.082,15,165.158v-54.633c0-8.924,7.26-16.184,16.184-16.184h70.5V181.341z M403.684,165.158
				c0,8.924-7.26,16.184-16.184,16.184H116.684v-87H387.5c8.924,0,16.184,7.26,16.184,16.184V165.158z"/>
			<path d="M43.184,169.342c4.142,0,7.5-3.358,7.5-7.5c0-4.687,3.813-8.5,8.5-8.5c4.687,0,8.5,3.813,8.5,8.5
				c0,4.142,3.358,7.5,7.5,7.5c4.142,0,7.5-3.358,7.5-7.5c0-6.176-2.4-11.797-6.309-15.996c3.911-4.199,6.309-9.826,6.309-16.004
				c0-12.958-10.542-23.5-23.5-23.5s-23.5,10.542-23.5,23.5c0,6.179,2.409,11.796,6.322,15.995
				c-3.915,4.199-6.322,9.823-6.322,16.005C35.684,165.984,39.042,169.342,43.184,169.342z M59.184,121.342
				c4.687,0,8.5,3.813,8.5,8.5c0,4.687-3.813,8.5-8.5,8.5c-4.687,0-8.5-3.813-8.5-8.5C50.684,125.155,54.497,121.342,59.184,121.342
				z"/>
			<path d="M291.184,114.342c-12.958,0-23.5,10.542-23.5,23.5s10.542,23.5,23.5,23.5s23.5-10.542,23.5-23.5
				S304.142,114.342,291.184,114.342z M291.184,146.342c-4.687,0-8.5-3.813-8.5-8.5s3.813-8.5,8.5-8.5s8.5,3.813,8.5,8.5
				S295.871,146.342,291.184,146.342z"/>
			<path d="M163.184,114.342c-12.958,0-23.5,10.542-23.5,23.5s10.542,23.5,23.5,23.5s23.5-10.542,23.5-23.5
				S176.142,114.342,163.184,114.342z M163.184,146.342c-4.687,0-8.5-3.813-8.5-8.5s3.813-8.5,8.5-8.5s8.5,3.813,8.5,8.5
				S167.871,146.342,163.184,146.342z"/>
			<path d="M355.184,114.342c-12.958,0-23.5,10.542-23.5,23.5s10.542,23.5,23.5,23.5s23.5-10.542,23.5-23.5
				S368.142,114.342,355.184,114.342z M355.184,146.342c-4.687,0-8.5-3.813-8.5-8.5s3.813-8.5,8.5-8.5s8.5,3.813,8.5,8.5
				S359.871,146.342,355.184,146.342z"/>
			<path d="M227.184,114.342c-12.958,0-23.5,10.542-23.5,23.5s10.542,23.5,23.5,23.5s23.5-10.542,23.5-23.5
				S240.142,114.342,227.184,114.342z M227.184,146.342c-4.687,0-8.5-3.813-8.5-8.5s3.813-8.5,8.5-8.5s8.5,3.813,8.5,8.5
				S231.871,146.342,227.184,146.342z"/>
			<path d="M387.5,222.342H31.184C13.989,222.342,0,236.331,0,253.525v54.633c0,17.195,13.989,31.184,31.184,31.184H387.5
				c17.195,0,31.184-13.989,31.184-31.184v-54.633C418.684,236.331,404.695,222.342,387.5,222.342z M101.684,324.341h-70.5
				C22.26,324.342,15,317.082,15,308.158v-54.633c0-8.924,7.26-16.184,16.184-16.184h70.5V324.341z M403.684,308.158
				c0,8.924-7.26,16.184-16.184,16.184H116.684v-87H387.5c8.924,0,16.184,7.26,16.184,16.184V308.158z"/>
			<path d="M163.183,257.342c-12.958,0-23.5,10.542-23.5,23.5s10.542,23.5,23.5,23.5c12.958,0,23.5-10.542,23.5-23.5
				S176.141,257.342,163.183,257.342z M163.183,289.342c-4.687,0-8.5-3.813-8.5-8.5s3.813-8.5,8.5-8.5c4.687,0,8.5,3.813,8.5,8.5
				S167.87,289.342,163.183,289.342z"/>
			<path d="M227.183,257.342c-12.958,0-23.5,10.542-23.5,23.5s10.542,23.5,23.5,23.5c12.958,0,23.5-10.542,23.5-23.5
				S240.141,257.342,227.183,257.342z M227.183,289.342c-4.687,0-8.5-3.813-8.5-8.5s3.813-8.5,8.5-8.5c4.687,0,8.5,3.813,8.5,8.5
				S231.87,289.342,227.183,289.342z"/>
			<path d="M291.183,257.342c-12.958,0-23.5,10.542-23.5,23.5s10.542,23.5,23.5,23.5s23.5-10.542,23.5-23.5
				S304.141,257.342,291.183,257.342z M291.183,289.342c-4.687,0-8.5-3.813-8.5-8.5s3.813-8.5,8.5-8.5s8.5,3.813,8.5,8.5
				S295.87,289.342,291.183,289.342z"/>
			<path d="M45.184,318.658h32c4.142,0,7.5-3.358,7.5-7.5v-26.633c0-4.142-3.358-7.5-7.5-7.5h-24.5v-10.5c0-4.687,3.813-8.5,8.5-8.5
				s8.5,3.813,8.5,8.5c0,4.142,3.358,7.5,7.5,7.5c4.142,0,7.5-3.358,7.5-7.5c0-12.958-10.542-23.5-23.5-23.5s-23.5,10.542-23.5,23.5
				v44.633C37.684,315.3,41.042,318.658,45.184,318.658z M52.684,292.025h17v11.633h-17V292.025z"/>
		</g>
	</g>
</g>
<g>
</g>
<g>
</g>
<g>
</g>
<g>
</g>
<g>
</g>
<g>
</g>
<g>
</g>
<g>
</g>
<g>
</g>
<g>
</g>
<g>
</g>
<g>
</g>
<g>
</g>
<g>
</g>
<g>
</g>
</svg>
